<svg width="367" height="235" viewBox="0 0 367 235" fill="none" xmlns="http://www.w3.org/2000/svg">
<path d="M313 25.2L202 25.2V11.55L313 11.55V25.2ZM243.4 43.3641C251.8 43.3641 259.15 45.0641 265.45 48.4641C271.85 51.8641 276.8 56.5141 280.3 62.4141C283.8 68.4141 285.55 75.0641 285.55 82.3641C285.55 89.5641 284 95.8141 280.9 101.114C277.8 106.414 273.9 110.364 269.2 112.964L284.2 112.964V126.764L202 126.764V112.964H217.3C212.5 110.264 208.5 106.214 205.3 100.814C202.2 95.5141 200.65 89.3141 200.65 82.2141C200.65 74.9141 202.45 68.3141 206.05 62.4141C209.65 56.5141 214.7 51.8641 221.2 48.4641C227.7 45.0641 235.1 43.3641 243.4 43.3641ZM243.25 112.964C249.45 112.964 254.85 111.714 259.45 109.214C264.05 106.714 267.55 103.314 269.95 99.0141C272.45 94.8141 273.7 90.1641 273.7 85.0641C273.7 79.9641 272.5 75.3141 270.1 71.1141C267.7 66.9141 264.2 63.5641 259.6 61.0641C255 58.5641 249.6 57.3141 243.4 57.3141C237.1 57.3141 231.6 58.5641 226.9 61.0641C222.3 63.5641 218.75 66.9141 216.25 71.1141C213.85 75.3141 212.65 79.9641 212.65 85.0641C212.65 90.1641 213.85 94.8141 216.25 99.0141C218.75 103.314 222.3 106.714 226.9 109.214C231.6 111.714 237.05 112.964 243.25 112.964ZM200.65 185.681C200.65 177.981 202.4 170.981 205.9 164.681C209.4 158.481 214.35 153.581 220.75 149.981C227.25 146.481 234.75 144.731 243.25 144.731C251.65 144.731 259.05 146.531 265.45 150.131C271.95 153.831 276.9 158.831 280.3 165.131C283.8 171.431 285.55 178.481 285.55 186.281C285.55 194.081 283.8 201.131 280.3 207.431C276.9 213.731 272 218.681 265.6 222.281C259.2 225.981 251.75 227.831 243.25 227.831C234.75 227.831 227.25 225.931 220.75 222.131C214.35 218.431 209.4 213.381 205.9 206.981C202.4 200.581 200.65 193.481 200.65 185.681ZM212.65 185.681C212.65 190.581 213.8 195.181 216.1 199.481C218.4 203.781 221.85 207.231 226.45 209.831C231.05 212.531 236.65 213.881 243.25 213.881C249.85 213.881 255.45 212.581 260.05 209.981C264.65 207.381 268.05 203.981 270.25 199.781C272.55 195.581 273.7 191.031 273.7 186.131C273.7 181.131 272.55 176.531 270.25 172.331C268.05 168.231 264.65 164.931 260.05 162.431C255.45 159.931 249.85 158.681 243.25 158.681C236.55 158.681 230.9 159.881 226.3 162.281C221.7 164.781 218.25 168.081 215.95 172.181C213.75 176.281 212.65 180.781 212.65 185.681Z" fill="url(#paint0_linear_206_122)" fill-opacity="0.7"/>
<path d="M54 209.8H165V223.45H54V209.8ZM123.6 191.636C115.2 191.636 107.85 189.936 101.55 186.536C95.15 183.136 90.2 178.486 86.7 172.586C83.2 166.586 81.45 159.936 81.45 152.636C81.45 145.436 83 139.186 86.1 133.886C89.2 128.586 93.1 124.636 97.8 122.036H82.8V108.236H165V122.036H149.7C154.5 124.736 158.5 128.786 161.7 134.186C164.8 139.486 166.35 145.686 166.35 152.786C166.35 160.086 164.55 166.686 160.95 172.586C157.35 178.486 152.3 183.136 145.8 186.536C139.3 189.936 131.9 191.636 123.6 191.636ZM123.75 122.036C117.55 122.036 112.15 123.286 107.55 125.786C102.95 128.286 99.45 131.686 97.05 135.986C94.55 140.186 93.3 144.836 93.3 149.936C93.3 155.036 94.5 159.686 96.9 163.886C99.3 168.086 102.8 171.436 107.4 173.936C112 176.436 117.4 177.686 123.6 177.686C129.9 177.686 135.4 176.436 140.1 173.936C144.7 171.436 148.25 168.086 150.75 163.886C153.15 159.686 154.35 155.036 154.35 149.936C154.35 144.836 153.15 140.186 150.75 135.986C148.25 131.686 144.7 128.286 140.1 125.786C135.4 123.286 129.95 122.036 123.75 122.036ZM166.35 49.3187C166.35 57.0187 164.6 64.0187 161.1 70.3187C157.6 76.5187 152.65 81.4187 146.25 85.0187C139.75 88.5187 132.25 90.2687 123.75 90.2687C115.35 90.2687 107.95 88.4687 101.55 84.8687C95.05 81.1687 90.1 76.1687 86.7 69.8687C83.2 63.5687 81.45 56.5187 81.45 48.7187C81.45 40.9187 83.2 33.8687 86.7 27.5687C90.1 21.2687 95 16.3187 101.4 12.7187C107.8 9.01875 115.25 7.16875 123.75 7.16875C132.25 7.16875 139.75 9.06875 146.25 12.8687C152.65 16.5687 157.6 21.6187 161.1 28.0187C164.6 34.4187 166.35 41.5187 166.35 49.3187ZM154.35 49.3187C154.35 44.4187 153.2 39.8187 150.9 35.5187C148.6 31.2187 145.15 27.7687 140.55 25.1687C135.95 22.4687 130.35 21.1187 123.75 21.1187C117.15 21.1187 111.55 22.4187 106.95 25.0187C102.35 27.6187 98.95 31.0187 96.75 35.2187C94.45 39.4187 93.3 43.9687 93.3 48.8687C93.3 53.8687 94.45 58.4687 96.75 62.6687C98.95 66.7687 102.35 70.0687 106.95 72.5687C111.55 75.0687 117.15 76.3187 123.75 76.3187C130.45 76.3187 136.1 75.1187 140.7 72.7187C145.3 70.2187 148.75 66.9187 151.05 62.8187C153.25 58.7187 154.35 54.2187 154.35 49.3187Z" fill="url(#paint1_linear_206_122)"/>
<defs>
<linearGradient id="paint0_linear_206_122" x1="358" y1="118.987" x2="98.5" y2="118.987" gradientUnits="userSpaceOnUse">
<stop stop-color="#E24E70"/>
<stop offset="1" stop-color="#774C9E"/>
</linearGradient>
<linearGradient id="paint1_linear_206_122" x1="9" y1="116.013" x2="236.5" y2="118" gradientUnits="userSpaceOnUse">
<stop stop-color="#E24E70"/>
<stop offset="1" stop-color="#774C9E"/>
</linearGradient>
</defs>
</svg>
