<svg width="76" height="48" viewBox="0 0 76 48" fill="none" xmlns="http://www.w3.org/2000/svg">
<path d="M65.2 5.04L43 5.04V2.31L65.2 2.31V5.04ZM51.28 8.67281C52.96 8.67281 54.43 9.01281 55.69 9.69281C56.97 10.3728 57.96 11.3028 58.66 12.4828C59.36 13.6828 59.71 15.0128 59.71 16.4728C59.71 17.9128 59.4 19.1628 58.78 20.2228C58.16 21.2828 57.38 22.0728 56.44 22.5928H59.44V25.3528L43 25.3528V22.5928H46.06C45.1 22.0528 44.3 21.2428 43.66 20.1628C43.04 19.1028 42.73 17.8628 42.73 16.4428C42.73 14.9828 43.09 13.6628 43.81 12.4828C44.53 11.3028 45.54 10.3728 46.84 9.69281C48.14 9.01281 49.62 8.67281 51.28 8.67281ZM51.25 22.5928C52.49 22.5928 53.57 22.3428 54.49 21.8428C55.41 21.3428 56.11 20.6628 56.59 19.8028C57.09 18.9628 57.34 18.0328 57.34 17.0128C57.34 15.9928 57.1 15.0628 56.62 14.2228C56.14 13.3828 55.44 12.7128 54.52 12.2128C53.6 11.7128 52.52 11.4628 51.28 11.4628C50.02 11.4628 48.92 11.7128 47.98 12.2128C47.06 12.7128 46.35 13.3828 45.85 14.2228C45.37 15.0628 45.13 15.9928 45.13 17.0128C45.13 18.0328 45.37 18.9628 45.85 19.8028C46.35 20.6628 47.06 21.3428 47.98 21.8428C48.92 22.3428 50.01 22.5928 51.25 22.5928ZM42.73 37.1363C42.73 35.5963 43.08 34.1963 43.78 32.9363C44.48 31.6963 45.47 30.7163 46.75 29.9963C48.05 29.2963 49.55 28.9463 51.25 28.9463C52.93 28.9463 54.41 29.3063 55.69 30.0263C56.99 30.7663 57.98 31.7663 58.66 33.0263C59.36 34.2863 59.71 35.6963 59.71 37.2563C59.71 38.8163 59.36 40.2263 58.66 41.4863C57.98 42.7463 57 43.7363 55.72 44.4563C54.44 45.1963 52.95 45.5663 51.25 45.5663C49.55 45.5663 48.05 45.1863 46.75 44.4263C45.47 43.6863 44.48 42.6763 43.78 41.3963C43.08 40.1163 42.73 38.6963 42.73 37.1363ZM45.13 37.1363C45.13 38.1163 45.36 39.0363 45.82 39.8963C46.28 40.7563 46.97 41.4463 47.89 41.9663C48.81 42.5063 49.93 42.7763 51.25 42.7763C52.57 42.7763 53.69 42.5163 54.61 41.9963C55.53 41.4763 56.21 40.7963 56.65 39.9563C57.11 39.1163 57.34 38.2063 57.34 37.2263C57.34 36.2263 57.11 35.3063 56.65 34.4663C56.21 33.6463 55.53 32.9863 54.61 32.4863C53.69 31.9863 52.57 31.7363 51.25 31.7363C49.91 31.7363 48.78 31.9763 47.86 32.4563C46.94 32.9563 46.25 33.6163 45.79 34.4363C45.35 35.2563 45.13 36.1563 45.13 37.1363Z" fill="url(#paint0_linear_361_2)" fill-opacity="0.7"/>
<path d="M10.8 42.96H33V45.69H10.8V42.96ZM24.72 39.3272C23.04 39.3272 21.57 38.9872 20.31 38.3072C19.03 37.6272 18.04 36.6972 17.34 35.5172C16.64 34.3172 16.29 32.9872 16.29 31.5272C16.29 30.0872 16.6 28.8372 17.22 27.7772C17.84 26.7172 18.62 25.9272 19.56 25.4072H16.56V22.6472H33V25.4072H29.94C30.9 25.9472 31.7 26.7572 32.34 27.8372C32.96 28.8972 33.27 30.1372 33.27 31.5572C33.27 33.0172 32.91 34.3372 32.19 35.5172C31.47 36.6972 30.46 37.6272 29.16 38.3072C27.86 38.9872 26.38 39.3272 24.72 39.3272ZM24.75 25.4072C23.51 25.4072 22.43 25.6572 21.51 26.1572C20.59 26.6572 19.89 27.3372 19.41 28.1972C18.91 29.0372 18.66 29.9672 18.66 30.9872C18.66 32.0072 18.9 32.9372 19.38 33.7772C19.86 34.6172 20.56 35.2872 21.48 35.7872C22.4 36.2872 23.48 36.5372 24.72 36.5372C25.98 36.5372 27.08 36.2872 28.02 35.7872C28.94 35.2872 29.65 34.6172 30.15 33.7772C30.63 32.9372 30.87 32.0072 30.87 30.9872C30.87 29.9672 30.63 29.0372 30.15 28.1972C29.65 27.3372 28.94 26.6572 28.02 26.1572C27.08 25.6572 25.99 25.4072 24.75 25.4072ZM33.27 10.8637C33.27 12.4037 32.92 13.8037 32.22 15.0637C31.52 16.3037 30.53 17.2837 29.25 18.0037C27.95 18.7037 26.45 19.0537 24.75 19.0537C23.07 19.0537 21.59 18.6937 20.31 17.9737C19.01 17.2337 18.02 16.2337 17.34 14.9737C16.64 13.7137 16.29 12.3037 16.29 10.7437C16.29 9.18375 16.64 7.77375 17.34 6.51375C18.02 5.25375 19 4.26375 20.28 3.54375C21.56 2.80375 23.05 2.43375 24.75 2.43375C26.45 2.43375 27.95 2.81375 29.25 3.57375C30.53 4.31375 31.52 5.32375 32.22 6.60375C32.92 7.88375 33.27 9.30375 33.27 10.8637ZM30.87 10.8637C30.87 9.88375 30.64 8.96375 30.18 8.10375C29.72 7.24375 29.03 6.55375 28.11 6.03375C27.19 5.49375 26.07 5.22375 24.75 5.22375C23.43 5.22375 22.31 5.48375 21.39 6.00375C20.47 6.52375 19.79 7.20375 19.35 8.04375C18.89 8.88375 18.66 9.79375 18.66 10.7737C18.66 11.7737 18.89 12.6937 19.35 13.5337C19.79 14.3537 20.47 15.0137 21.39 15.5137C22.31 16.0137 23.43 16.2637 24.75 16.2637C26.09 16.2637 27.22 16.0237 28.14 15.5437C29.06 15.0437 29.75 14.3837 30.21 13.5637C30.65 12.7437 30.87 11.8437 30.87 10.8637Z" fill="url(#paint1_linear_361_2)"/>
<defs>
<linearGradient id="paint0_linear_361_2" x1="74.2" y1="23.7975" x2="22.3" y2="23.7975" gradientUnits="userSpaceOnUse">
<stop stop-color="#E24E70"/>
<stop offset="1" stop-color="#774C9E"/>
</linearGradient>
<linearGradient id="paint1_linear_361_2" x1="1.8" y1="24.2025" x2="53.7" y2="24.2025" gradientUnits="userSpaceOnUse">
<stop stop-color="#E24E70"/>
<stop offset="1" stop-color="#774C9E"/>
</linearGradient>
</defs>
</svg>
