<svg width="174" height="124" viewBox="0 0 174 124" fill="none" xmlns="http://www.w3.org/2000/svg">
<g filter="url(#filter0_d_407_174)">
<path d="M14.2674 0.460666C13.4309 0.68865 12.1127 1.22061 11.3523 1.62592C9.37508 2.68984 6.58672 5.55231 5.59812 7.60417C3.89976 11.0239 4.00115 7.85748 4.00115 57.9886C4.00115 108.12 3.89976 104.953 5.59812 108.373C6.63742 110.501 9.37508 113.313 11.479 114.402C14.7997 116.125 8.66532 115.998 86.8408 115.998C137.513 115.998 157.969 115.922 158.933 115.719C162.177 115.035 165.371 112.857 167.323 109.994C168.666 108.018 169.402 106.169 169.782 103.661C169.959 102.496 170.035 87.4492 169.985 56.8487L169.909 11.7585L169.224 9.70669C167.602 4.91902 163.571 1.22061 158.933 0.258013C157.969 0.055361 137.538 -0.0206337 86.6887 0.00469786C20.3511 0.00469786 15.6869 0.055361 14.2674 0.460666ZM152.494 10.3146C152.443 10.492 114.902 44.8922 98.1716 60.1165C91.2768 66.3987 87.8801 68.0706 84.7368 66.728C81.9485 65.5374 79.6924 63.7136 70.795 55.5821C67.6011 52.6437 55.4337 41.5485 43.7986 30.9092C32.1636 20.2699 22.3029 11.2266 21.872 10.8466L21.1115 10.112H86.8661C123.013 10.112 152.545 10.2133 152.494 10.3146ZM36.1687 39.3193C47.677 49.7305 57.1067 58.3433 57.1067 58.4699C57.1067 58.6473 16.2699 96.7966 14.8251 97.9872C14.4195 98.3165 14.3941 95.834 14.3941 59.0019C14.3941 22.2965 14.4195 19.6873 14.8251 20.0166C15.0532 20.2193 24.6604 28.908 36.1687 39.3193ZM159.642 59.1539V98.5445L152.367 91.7556C148.337 88.0319 138.704 79.0392 130.922 71.8197C123.14 64.5748 116.828 58.5459 116.879 58.3939C116.98 58.09 159.186 19.7886 159.465 19.7633C159.566 19.738 159.642 37.4701 159.642 59.1539ZM68.5643 69.6665C73.2285 73.8969 74.4199 74.8088 76.8534 75.9741C80.3262 77.6459 82.3287 78.0766 86.8915 78.0766C91.4289 78.0766 93.4821 77.6459 96.9042 75.9994C99.4644 74.7835 101.061 73.5676 105.497 69.5398C107.449 67.792 109.122 66.3481 109.198 66.3481C109.35 66.3481 149.427 102.952 151.531 105.004L152.418 105.865H87.0689C51.1498 105.865 21.7453 105.789 21.7706 105.663C21.796 105.308 64.4579 66.3734 64.762 66.4241C64.9141 66.4494 66.6378 67.8933 68.5643 69.6665Z" fill="black"/>
</g>
<defs>
<filter id="filter0_d_407_174" x="0" y="0" width="174" height="124" filterUnits="userSpaceOnUse" color-interpolation-filters="sRGB">
<feFlood flood-opacity="0" result="BackgroundImageFix"/>
<feColorMatrix in="SourceAlpha" type="matrix" values="0 0 0 0 0 0 0 0 0 0 0 0 0 0 0 0 0 0 127 0" result="hardAlpha"/>
<feOffset dy="4"/>
<feGaussianBlur stdDeviation="2"/>
<feComposite in2="hardAlpha" operator="out"/>
<feColorMatrix type="matrix" values="0 0 0 0 0.6 0 0 0 0 0.6 0 0 0 0 0.6 0 0 0 0.15 0"/>
<feBlend mode="normal" in2="BackgroundImageFix" result="effect1_dropShadow_407_174"/>
<feBlend mode="normal" in="SourceGraphic" in2="effect1_dropShadow_407_174" result="shape"/>
</filter>
</defs>
</svg>
