<svg width="158" height="157" viewBox="0 0 158 157" fill="none" xmlns="http://www.w3.org/2000/svg">
<g filter="url(#filter0_d_407_170)">
<path d="M74.4266 0.0973909C59.6773 0.995115 45.8222 6.11428 34.0816 15.0167C17.5018 27.5741 6.75015 46.5546 4.47779 67.2984C2.30011 87.0911 7.61281 106.531 19.4691 122.209C23.1406 127.05 28.043 132.073 32.7456 135.782C39.1208 140.826 46.3587 144.845 53.9648 147.581C55.1115 147.987 55.3219 148.029 56.2792 148.04C58.0887 148.051 59.1618 147.474 59.8246 146.106L60.1717 145.379L60.1402 137.855C60.1296 133.709 60.0981 130.31 60.077 130.278C60.056 130.257 59.4248 130.342 58.6779 130.46C56.2372 130.855 54.1542 131.026 51.8082 131.037C48.5995 131.037 46.3692 130.727 44.0232 129.936C41.6036 129.134 39.8362 128.055 38.174 126.367C36.7958 124.966 36.0805 123.844 35.081 121.493C33.9028 118.725 32.3353 116 30.5679 113.692C29.4527 112.217 28.4112 111.244 27.0226 110.378C25.0869 109.149 23.8244 107.803 23.8244 106.937C23.8244 106.52 24.1926 106.146 24.8554 105.879C25.3919 105.655 25.6339 105.633 27.2435 105.623C29.337 105.623 30.0103 105.772 31.7672 106.627C34.4078 107.92 36.9747 110.443 38.9735 113.692C41.1302 117.208 43.9811 119.666 47.1793 120.777C48.7363 121.322 50.0302 121.525 51.9134 121.536C54.5013 121.547 57.0577 121.034 59.4879 120.029L60.4873 119.612L60.7609 118.212C61.4341 114.846 62.7597 112.035 64.5797 110.133C64.9584 109.737 65.2109 109.417 65.1373 109.417C64.748 109.417 60.3611 108.722 59.0145 108.444C54.3014 107.482 50.1881 106.05 46.9268 104.223C37.7953 99.1035 32.8297 90.6392 31.5568 77.9963C31.2938 75.4207 31.2307 70.6008 31.4411 68.645C31.8303 64.9686 32.7771 61.6022 34.2815 58.4922C35.4598 56.0662 37.0378 53.6616 38.4896 52.0478C38.8894 51.5989 38.8999 51.5669 38.7947 51.1928C38.7316 50.9791 38.5317 50.2951 38.3423 49.6753C37.3639 46.3409 37.1746 42.0446 37.8268 38.0903C38.2476 35.5789 39.3733 31.7315 39.7836 31.4215C40.0887 31.1971 42.2137 31.2185 43.655 31.4643C47.9367 32.191 53.1127 34.5101 58.8883 38.2934L60.2348 39.1804L61.8339 38.7636C65.8211 37.7377 70.0291 37.0751 74.637 36.7438C76.6358 36.6048 83.1268 36.6903 85.1572 36.8934C88.9234 37.2567 92.7633 37.9193 96.0246 38.7636L97.6026 39.1697L99.1911 38.1331C106.019 33.6765 112.015 31.2719 116.35 31.2505C118.138 31.2399 118.096 31.2292 118.485 32.2765C119.674 35.4827 120.274 38.5713 120.368 41.9805C120.463 45.1759 120.126 47.8157 119.295 50.402L118.938 51.5348L119.653 52.3898C123.419 56.9212 125.607 62.019 126.344 67.9503C126.544 69.5962 126.617 73.0909 126.491 75.3779C125.639 91.0667 119.379 101.006 107.26 105.943C103.199 107.6 99.3069 108.53 92.9632 109.374L92.5108 109.427L93.2367 110.218C95.6353 112.783 97.1607 116.812 97.4237 121.279C97.4658 121.899 97.4974 127.596 97.5079 133.944L97.5184 145.486L97.813 146.095C98.4232 147.367 99.6856 148.104 101.243 148.104C102.137 148.104 102.768 147.933 104.851 147.142C111.468 144.62 117.949 141.019 123.524 136.754C140.041 124.154 150.73 105.217 153.012 84.5262C153.349 81.4376 153.454 79.3001 153.465 75.8589C153.465 72.4603 153.36 70.4725 153.002 67.2984C150.561 45.0798 138.389 24.9237 119.926 12.5373C107.555 4.23333 93.2367 -0.0842912 78.3717 0.00120625C76.983 0.00120625 75.2051 0.0546422 74.4266 0.0973909Z" fill="black"/>
</g>
<defs>
<filter id="filter0_d_407_170" x="0" y="0" width="157.465" height="156.104" filterUnits="userSpaceOnUse" color-interpolation-filters="sRGB">
<feFlood flood-opacity="0" result="BackgroundImageFix"/>
<feColorMatrix in="SourceAlpha" type="matrix" values="0 0 0 0 0 0 0 0 0 0 0 0 0 0 0 0 0 0 127 0" result="hardAlpha"/>
<feOffset dy="4"/>
<feGaussianBlur stdDeviation="2"/>
<feComposite in2="hardAlpha" operator="out"/>
<feColorMatrix type="matrix" values="0 0 0 0 0.6 0 0 0 0 0.6 0 0 0 0 0.6 0 0 0 0.15 0"/>
<feBlend mode="normal" in2="BackgroundImageFix" result="effect1_dropShadow_407_170"/>
<feBlend mode="normal" in="SourceGraphic" in2="effect1_dropShadow_407_170" result="shape"/>
</filter>
</defs>
</svg>
