<svg width="136" height="140" viewBox="0 0 136 140" fill="none" xmlns="http://www.w3.org/2000/svg">
<g filter="url(#filter0_d_407_172)">
<path d="M11.0351 0.29694C7.78665 1.09869 4.94186 3.99279 4.21144 7.23888C4.07689 7.80597 4 27.4976 4 65.4925C4 116.53 4.03844 123.023 4.28832 124.059C5.11485 127.227 7.74821 129.828 11.0159 130.708C12.0346 130.962 18.4738 131.001 68.0078 131.001C128.844 131.001 124.788 131.079 126.999 129.925C127.518 129.671 128.479 128.948 129.113 128.342C130.439 127.11 131.497 125.154 131.823 123.394C131.958 122.71 132.016 102.51 131.996 65.3165C131.996 12.0689 131.977 8.21662 131.67 7.00422C130.805 3.6408 127.96 0.922692 124.558 0.199166C123.827 0.0427283 107.816 -0.015936 67.854 0.00361876C20.4537 0.0231735 11.9962 0.062283 11.0351 0.29694ZM35.8694 22.1983C38.0222 22.648 39.6176 23.5084 41.1168 25.0142C43.0967 27.0087 43.9809 29.238 43.9809 32.269C43.9809 35.1826 43.0006 37.5488 40.9823 39.4847C38.9064 41.4597 36.3115 42.3983 33.0053 42.4179C26.7968 42.4179 22.3182 38.1941 22.2797 32.2494C22.2413 29.414 23.1831 27.0087 25.0668 25.0924C27.6617 22.4329 31.7559 21.3379 35.8694 22.1983ZM95.3024 49.5358C105.394 51.7455 111.295 59.411 112.39 71.75C112.525 73.1189 112.602 80.9017 112.602 91.8328V109.686H102.895H93.1881V93.3972C93.1881 84.0109 93.092 76.3454 92.9958 75.2699C92.4961 70.4985 90.7854 67.2133 88.0175 65.8054C84.3654 63.9086 79.7906 64.5148 76.6191 67.2524C75.4273 68.3084 73.8896 70.655 73.3514 72.2976L72.9093 73.6077L72.8516 91.6372L72.794 109.686H63.1063H53.4186L53.4571 80.0608L53.4955 50.4353H63.1448H72.8132L72.8516 54.5614L72.9093 58.6875L73.7358 57.4751C76.869 52.9579 81.1554 50.2398 86.5374 49.3403C88.5364 49.0078 93.3418 49.1252 95.3024 49.5358ZM42.8276 80.0608V109.686H33.1207H23.4138V80.0608V50.4353H33.1207H42.8276V80.0608Z" fill="black"/>
</g>
<defs>
<filter id="filter0_d_407_172" x="0" y="0" width="136" height="139.002" filterUnits="userSpaceOnUse" color-interpolation-filters="sRGB">
<feFlood flood-opacity="0" result="BackgroundImageFix"/>
<feColorMatrix in="SourceAlpha" type="matrix" values="0 0 0 0 0 0 0 0 0 0 0 0 0 0 0 0 0 0 127 0" result="hardAlpha"/>
<feOffset dy="4"/>
<feGaussianBlur stdDeviation="2"/>
<feComposite in2="hardAlpha" operator="out"/>
<feColorMatrix type="matrix" values="0 0 0 0 0.6 0 0 0 0 0.6 0 0 0 0 0.6 0 0 0 0.15 0"/>
<feBlend mode="normal" in2="BackgroundImageFix" result="effect1_dropShadow_407_172"/>
<feBlend mode="normal" in="SourceGraphic" in2="effect1_dropShadow_407_172" result="shape"/>
</filter>
</defs>
</svg>
